<svg fill="none" height="512" viewBox="0 0 36 36" width="512" xmlns="http://www.w3.org/2000/svg"><g id="36 Multicolor / Flag / mc_36_flag_paraguay"><g id="mc_36_flag_Paraguay"><path id="Oval" d="m18 36c9.9411 0 18-8.0589 18-18 0-9.94113-8.0589-18-18-18-9.94113 0-18 8.05887-18 18 0 9.9411 8.05887 18 18 18z" fill="#f0f0f0"/><path id="Path" d="m18 0c-7.136 0-13.30199 4.153-16.21399 10.174h32.42799c-2.912-6.021-9.078-10.174-16.214-10.174z" fill="#d80027"/><path id="Path_2" d="m18 35.9999c7.136 0 13.302-4.153 16.214-10.174h-32.42799c2.912 6.021 9.07799 10.174 16.21399 10.174z" fill="#0052b4"/><path id="Path_3" d="m22.427 12.8-1.66 1.66c.7351.7331 1.1475 1.729 1.146 2.767 0 2.16-1.752 3.913-3.913 3.913s-3.913-1.752-3.913-3.913c-.0015-1.038.411-2.0339 1.146-2.767l-1.66-1.66c-1.1761 1.1728-1.8362 2.7661-1.834 4.427 0 3.4579 2.8032 6.261 6.261 6.261 3.4579 0 6.261-2.8031 6.261-6.261.0022-1.6609-.6578-3.2542-1.834-4.427z" fill="#6da544"/><path id="Path_4" d="m18 14.8701.583 1.794h1.886l-1.526 1.108.583 1.794-1.526-1.109-1.526 1.108.583-1.794-1.526-1.108h1.886z" fill="#ffda44"/></g></g></svg>